<svg xmlns="http://www.w3.org/2000/svg" xmlns:xlink="http://www.w3.org/1999/xlink" viewBox="0,0,256,256" width="48px" height="48px" fill-rule="nonzero"><g fill-opacity="0" fill="#000000" fill-rule="nonzero" stroke="none" stroke-width="1" stroke-linecap="butt" stroke-linejoin="miter" stroke-miterlimit="10" stroke-dasharray="" stroke-dashoffset="0" font-family="none" font-weight="none" font-size="none" text-anchor="none" style="mix-blend-mode: normal"><path d="M0,256v-256h256v256z" id="bgRectangle"></path></g><g fill="#ff0000" fill-rule="nonzero" stroke="none" stroke-width="1" stroke-linecap="butt" stroke-linejoin="miter" stroke-miterlimit="10" stroke-dasharray="" stroke-dashoffset="0" font-family="none" font-weight="none" font-size="none" text-anchor="none" style="mix-blend-mode: normal"><g transform="scale(10.66667,10.66667)"><path d="M21,23l-4.378,-3.406l0.378,1.406h-12c-1.105,0 -2,-0.895 -2,-2v-14c0,-1.105 0.895,-2 2,-2h14c1.105,0 2,0.895 2,2zM16.29,8.57c0,0 -1.23,-0.95 -2.68,-1.06l-0.3,0.61c-0.45,-0.08 -0.91,-0.14 -1.31,-0.14c-0.41,0 -0.88,0.06 -1.31,0.14l-0.3,-0.61c-1.52,0.15 -2.68,1.06 -2.68,1.06c0,0 -1.37,1.98 -1.6,5.84c1.38,1.58 3.48,1.59 3.48,1.59l0.43,-0.58c-0.44,-0.15 -0.82,-0.35 -1.21,-0.65l0.09,-0.24c0.72,0.33 1.65,0.53 3.1,0.53c1.45,0 2.38,-0.2 3.1,-0.53l0.09,0.24c-0.39,0.3 -0.77,0.5 -1.21,0.65l0.43,0.58c0,0 2.1,-0.01 3.48,-1.59c-0.23,-3.86 -1.6,-5.84 -1.6,-5.84zM10,13.38c-0.52,0 -0.94,-0.53 -0.94,-1.18c0,-0.65 0.42,-1.18 0.94,-1.18c0.52,0 0.94,0.53 0.94,1.18c0,0.65 -0.42,1.18 -0.94,1.18zM14,13.38c-0.52,0 -0.94,-0.53 -0.94,-1.18c0,-0.65 0.42,-1.18 0.94,-1.18c0.52,0 0.94,0.53 0.94,1.18c0,0.65 -0.42,1.18 -0.94,1.18z"></path></g></g></svg>